<?xml version="1.0" encoding="UTF-8" standalone="no"?>
<!DOCTYPE svg PUBLIC "-//W3C//DTD SVG 1.1//EN"
 "http://www.w3.org/Graphics/SVG/1.1/DTD/svg11.dtd">
<!-- Generated by graphviz version 2.38.0 (20140413.2041)
 -->
<!-- Title: execution Pages: 1 -->
<svg width="888pt" height="314pt"
 viewBox="0.00 0.00 888.00 314.00" xmlns="http://www.w3.org/2000/svg" xmlns:xlink="http://www.w3.org/1999/xlink">
<g id="graph0" class="graph" transform="scale(1 1) rotate(0) translate(4 310)">
<title>execution</title>
<polygon fill="white" stroke="none" points="-4,4 -4,-310 884,-310 884,4 -4,4"/>
<!-- start -->
<g id="node1" class="node"><title>start</title>
<polygon fill="none" stroke="black" points="89,-171 7.10543e-15,-171 7.10543e-15,-135 89,-135 89,-171"/>
<text text-anchor="middle" x="44.5" y="-149.3" font-family="Times,serif" font-size="14.00">ssh&#45;keycheck</text>
</g>
<!-- passwd -->
<g id="node2" class="node"><title>passwd</title>
<polygon fill="none" stroke="black" points="205,-252 125,-252 125,-216 205,-216 205,-252"/>
<text text-anchor="middle" x="165" y="-230.3" font-family="Times,serif" font-size="14.00">/etc/passwd</text>
</g>
<!-- start&#45;&gt;passwd -->
<g id="edge1" class="edge"><title>start:ne&#45;&gt;passwd:w</title>
<path fill="none" stroke="black" d="M87.5,-171C107.661,-191.161 96.3033,-224.275 114.978,-232.238"/>
<polygon fill="black" stroke="black" points="114.545,-235.715 125,-234 115.757,-228.821 114.545,-235.715"/>
</g>
<!-- logs -->
<g id="node6" class="node"><title>logs</title>
<polygon fill="none" stroke="black" points="196,-90 134,-90 134,-54 196,-54 196,-90"/>
<text text-anchor="middle" x="165" y="-68.3" font-family="Times,serif" font-size="14.00">/var/log/</text>
</g>
<!-- start&#45;&gt;logs -->
<g id="edge2" class="edge"><title>start:se&#45;&gt;logs:w</title>
<path fill="none" stroke="black" d="M89,-135C110.32,-113.68 101.671,-80.9036 122.85,-73.5144"/>
<polygon fill="black" stroke="black" points="123.626,-76.9374 133,-72 122.593,-70.014 123.626,-76.9374"/>
</g>
<!-- keys1 -->
<g id="node3" class="node"><title>keys1</title>
<polygon fill="none" stroke="black" points="457,-306 241,-306 241,-270 457,-270 457,-306"/>
<text text-anchor="middle" x="349" y="-284.3" font-family="Times,serif" font-size="14.00">/root/.ssh/authorized_keys</text>
</g>
<!-- passwd&#45;&gt;keys1 -->
<g id="edge3" class="edge"><title>passwd:ne&#45;&gt;keys1:w</title>
<path fill="none" stroke="black" d="M204,-252C217.309,-265.309 218.241,-281.008 230.812,-286.22"/>
<polygon fill="black" stroke="black" points="230.547,-289.726 241,-288 231.752,-282.831 230.547,-289.726"/>
</g>
<!-- keys2 -->
<g id="node4" class="node"><title>keys2</title>
<polygon fill="none" stroke="black" points="457,-252 241,-252 241,-216 457,-216 457,-252"/>
<text text-anchor="middle" x="349" y="-230.3" font-family="Times,serif" font-size="14.00">/home/deploy/.ssh/authorized_keys</text>
</g>
<!-- passwd&#45;&gt;keys2 -->
<g id="edge4" class="edge"><title>passwd:e&#45;&gt;keys2:w</title>
<path fill="none" stroke="black" d="M205,-234C217,-234 222.25,-234 230.875,-234"/>
<polygon fill="black" stroke="black" points="231,-237.5 241,-234 231,-230.5 231,-237.5"/>
</g>
<!-- keys3 -->
<g id="node5" class="node"><title>keys3</title>
<polygon fill="none" stroke="black" points="457,-198 241,-198 241,-162 457,-162 457,-198"/>
<text text-anchor="middle" x="349" y="-176.3" font-family="Times,serif" font-size="14.00">/home/dev/.ssh/authorized_keys</text>
</g>
<!-- passwd&#45;&gt;keys3 -->
<g id="edge5" class="edge"><title>passwd:se&#45;&gt;keys3:w</title>
<path fill="none" stroke="black" d="M205,-216C218.125,-202.875 218.715,-187.058 230.994,-181.798"/>
<polygon fill="black" stroke="black" points="231.777,-185.214 241,-180 230.539,-178.324 231.777,-185.214"/>
</g>
<!-- keylist -->
<g id="node10" class="node"><title>keylist</title>
<polygon fill="none" stroke="black" points="598,-252 500,-252 500,-216 598,-216 598,-252"/>
<text text-anchor="middle" x="549" y="-230.3" font-family="Times,serif" font-size="14.00">List of all keys</text>
</g>
<!-- keys1&#45;&gt;keylist -->
<g id="edge6" class="edge"><title>keys1:e&#45;&gt;keylist:nw</title>
<path fill="none" stroke="black" d="M457,-288C477.936,-288 481.066,-274.501 492.269,-259.758"/>
<polygon fill="black" stroke="black" points="495.09,-261.847 499,-252 489.803,-257.259 495.09,-261.847"/>
</g>
<!-- keys2&#45;&gt;keylist -->
<g id="edge7" class="edge"><title>keys2:e&#45;&gt;keylist:w</title>
<path fill="none" stroke="black" d="M457,-234C471.729,-234 477.742,-234 488.793,-234"/>
<polygon fill="black" stroke="black" points="489,-237.5 499,-234 489,-230.5 489,-237.5"/>
</g>
<!-- keys3&#45;&gt;keylist -->
<g id="edge8" class="edge"><title>keys3:e&#45;&gt;keylist:sw</title>
<path fill="none" stroke="black" d="M457,-180C478.714,-180 482.407,-193.392 494.356,-208.498"/>
<polygon fill="black" stroke="black" points="491.75,-210.834 501,-216 496.99,-206.193 491.75,-210.834"/>
</g>
<!-- authlog1 -->
<g id="node7" class="node"><title>authlog1</title>
<polygon fill="none" stroke="black" points="421,-144 277,-144 277,-108 421,-108 421,-144"/>
<text text-anchor="middle" x="349" y="-122.3" font-family="Times,serif" font-size="14.00">/var/log/auth.log</text>
</g>
<!-- logs&#45;&gt;authlog1 -->
<g id="edge9" class="edge"><title>logs:ne&#45;&gt;authlog1:w</title>
<path fill="none" stroke="black" d="M195,-90C220.354,-115.354 234.02,-124.378 265.974,-125.794"/>
<polygon fill="black" stroke="black" points="265.93,-129.294 276,-126 266.074,-122.296 265.93,-129.294"/>
</g>
<!-- authlog2 -->
<g id="node8" class="node"><title>authlog2</title>
<polygon fill="none" stroke="black" points="421,-90 277,-90 277,-54 421,-54 421,-90"/>
<text text-anchor="middle" x="349" y="-68.3" font-family="Times,serif" font-size="14.00">/var/log/auth.log.1</text>
</g>
<!-- logs&#45;&gt;authlog2 -->
<g id="edge10" class="edge"><title>logs:e&#45;&gt;authlog2:w</title>
<path fill="none" stroke="black" d="M197,-72C228.408,-72 238.744,-72 265.708,-72"/>
<polygon fill="black" stroke="black" points="266,-75.5001 276,-72 266,-68.5001 266,-75.5001"/>
</g>
<!-- authlog3 -->
<g id="node9" class="node"><title>authlog3</title>
<polygon fill="none" stroke="black" points="421,-36 277,-36 277,-0 421,-0 421,-36"/>
<text text-anchor="middle" x="349" y="-14.3" font-family="Times,serif" font-size="14.00">/var/log/auth.log.2.gz</text>
</g>
<!-- logs&#45;&gt;authlog3 -->
<g id="edge11" class="edge"><title>logs:se&#45;&gt;authlog3:w</title>
<path fill="none" stroke="black" d="M197,-54C221.726,-29.2742 234.829,-19.7975 265.787,-18.2379"/>
<polygon fill="black" stroke="black" points="266.084,-21.7321 276,-18 265.921,-14.734 266.084,-21.7321"/>
</g>
<!-- mergelogs -->
<g id="node11" class="node"><title>mergelogs</title>
<polygon fill="none" stroke="black" points="605,-90 493,-90 493,-54 605,-54 605,-90"/>
<text text-anchor="middle" x="549" y="-68.3" font-family="Times,serif" font-size="14.00">Summary of logs</text>
</g>
<!-- authlog1&#45;&gt;mergelogs -->
<g id="edge12" class="edge"><title>authlog1:e&#45;&gt;mergelogs:nw</title>
<path fill="none" stroke="black" d="M422,-126C453.787,-126 465.573,-117.135 485.782,-97.1914"/>
<polygon fill="black" stroke="black" points="488.387,-99.5376 493,-90 483.446,-94.5789 488.387,-99.5376"/>
</g>
<!-- authlog2&#45;&gt;mergelogs -->
<g id="edge13" class="edge"><title>authlog2:e&#45;&gt;mergelogs:w</title>
<path fill="none" stroke="black" d="M422,-72C449.858,-72 459.27,-72 482.805,-72"/>
<polygon fill="black" stroke="black" points="483,-75.5001 493,-72 483,-68.5001 483,-75.5001"/>
</g>
<!-- authlog3&#45;&gt;mergelogs -->
<g id="edge14" class="edge"><title>authlog3:e&#45;&gt;mergelogs:sw</title>
<path fill="none" stroke="black" d="M422,-18C454.143,-18 466.226,-26.6384 486.696,-46.7396"/>
<polygon fill="black" stroke="black" points="484.44,-49.4326 494,-54 489.375,-44.4679 484.44,-49.4326"/>
</g>
<!-- merge -->
<g id="node12" class="node"><title>merge</title>
<polygon fill="none" stroke="black" points="695,-171 641,-171 641,-135 695,-135 695,-171"/>
<text text-anchor="middle" x="668" y="-149.3" font-family="Times,serif" font-size="14.00">Merge</text>
</g>
<!-- keylist&#45;&gt;merge -->
<g id="edge15" class="edge"><title>keylist:e&#45;&gt;merge:nw</title>
<path fill="none" stroke="black" d="M599,-234C629.103,-234 619.917,-202.629 634.677,-178.979"/>
<polygon fill="black" stroke="black" points="637.532,-181.011 641,-171 632.046,-176.664 637.532,-181.011"/>
</g>
<!-- mergelogs&#45;&gt;merge -->
<g id="edge16" class="edge"><title>mergelogs:e&#45;&gt;merge:sw</title>
<path fill="none" stroke="black" d="M605,-72C633.92,-72 622.462,-103.759 635.831,-126.928"/>
<polygon fill="black" stroke="black" points="633.147,-129.18 642,-135 638.709,-124.929 633.147,-129.18"/>
</g>
<!-- filter -->
<g id="node13" class="node"><title>filter</title>
<polygon fill="none" stroke="black" points="785,-171 731,-171 731,-135 785,-135 785,-171"/>
<text text-anchor="middle" x="758" y="-149.3" font-family="Times,serif" font-size="14.00">Filter</text>
</g>
<!-- merge&#45;&gt;filter -->
<g id="edge17" class="edge"><title>merge&#45;&gt;filter</title>
<path fill="none" stroke="black" d="M695.403,-153C703.393,-153 712.311,-153 720.824,-153"/>
<polygon fill="black" stroke="black" points="720.919,-156.5 730.919,-153 720.919,-149.5 720.919,-156.5"/>
</g>
<!-- display -->
<g id="node14" class="node"><title>display</title>
<polygon fill="none" stroke="black" points="880,-171 821,-171 821,-135 880,-135 880,-171"/>
<text text-anchor="middle" x="850.5" y="-149.3" font-family="Times,serif" font-size="14.00">Display</text>
</g>
<!-- filter&#45;&gt;display -->
<g id="edge18" class="edge"><title>filter&#45;&gt;display</title>
<path fill="none" stroke="black" d="M785.176,-153C793.119,-153 802.02,-153 810.61,-153"/>
<polygon fill="black" stroke="black" points="810.848,-156.5 820.848,-153 810.848,-149.5 810.848,-156.5"/>
</g>
</g>
</svg>
