<?xml version="1.0" encoding="UTF-8" standalone="no"?>
<!DOCTYPE svg PUBLIC "-//W3C//DTD SVG 1.1//EN"
 "http://www.w3.org/Graphics/SVG/1.1/DTD/svg11.dtd">
<!-- Generated by graphviz version 2.38.0 (20140413.2041)
 -->
<!-- Title: execution Pages: 1 -->
<svg width="738pt" height="314pt"
 viewBox="0.00 0.00 738.00 314.00" xmlns="http://www.w3.org/2000/svg" xmlns:xlink="http://www.w3.org/1999/xlink">
<g id="graph0" class="graph" transform="scale(1 1) rotate(0) translate(4 310)">
<title>execution</title>
<polygon fill="white" stroke="none" points="-4,4 -4,-310 734,-310 734,4 -4,4"/>
<!-- start -->
<g id="node1" class="node"><title>start</title>
<polygon fill="none" stroke="black" points="89,-171 7.10543e-15,-171 7.10543e-15,-135 89,-135 89,-171"/>
<text text-anchor="middle" x="44.5" y="-149.3" font-family="Times,serif" font-size="14.00">ssh&#45;keycheck</text>
</g>
<!-- passwd -->
<g id="node2" class="node"><title>passwd</title>
<polygon fill="none" stroke="black" points="205,-252 125,-252 125,-216 205,-216 205,-252"/>
<text text-anchor="middle" x="165" y="-230.3" font-family="Times,serif" font-size="14.00">/etc/passwd</text>
</g>
<!-- start&#45;&gt;passwd -->
<g id="edge1" class="edge"><title>start:e&#45;&gt;passwd:w</title>
<path fill="none" stroke="black" d="M89,-153C124.24,-153 93.7166,-217.815 115.085,-231.487"/>
<polygon fill="black" stroke="black" points="114.447,-234.936 125,-234 116.166,-228.15 114.447,-234.936"/>
</g>
<!-- logs -->
<g id="node6" class="node"><title>logs</title>
<polygon fill="none" stroke="black" points="196,-90 134,-90 134,-54 196,-54 196,-90"/>
<text text-anchor="middle" x="165" y="-68.3" font-family="Times,serif" font-size="14.00">/var/log/</text>
</g>
<!-- start&#45;&gt;logs -->
<g id="edge2" class="edge"><title>start:e&#45;&gt;logs:w</title>
<path fill="none" stroke="black" d="M89,-153C125.968,-153 98.6886,-87.0478 123.108,-74.1666"/>
<polygon fill="black" stroke="black" points="123.98,-77.5585 133,-72 122.483,-70.7206 123.98,-77.5585"/>
</g>
<!-- keys1 -->
<g id="node3" class="node"><title>keys1</title>
<polygon fill="none" stroke="black" points="457,-306 241,-306 241,-270 457,-270 457,-306"/>
<text text-anchor="middle" x="349" y="-284.3" font-family="Times,serif" font-size="14.00">/root/.ssh/authorized_keys</text>
</g>
<!-- passwd&#45;&gt;keys1 -->
<g id="edge3" class="edge"><title>passwd:e&#45;&gt;keys1:w</title>
<path fill="none" stroke="black" d="M205,-234C229.563,-234 217.481,-273.159 231.165,-284.784"/>
<polygon fill="black" stroke="black" points="230.407,-288.218 241,-288 232.583,-281.565 230.407,-288.218"/>
</g>
<!-- keys2 -->
<g id="node4" class="node"><title>keys2</title>
<polygon fill="none" stroke="black" points="457,-252 241,-252 241,-216 457,-216 457,-252"/>
<text text-anchor="middle" x="349" y="-230.3" font-family="Times,serif" font-size="14.00">/home/deploy/.ssh/authorized_keys</text>
</g>
<!-- passwd&#45;&gt;keys2 -->
<g id="edge4" class="edge"><title>passwd:e&#45;&gt;keys2:w</title>
<path fill="none" stroke="black" d="M205,-234C217,-234 222.25,-234 230.875,-234"/>
<polygon fill="black" stroke="black" points="231,-237.5 241,-234 231,-230.5 231,-237.5"/>
</g>
<!-- keys3 -->
<g id="node5" class="node"><title>keys3</title>
<polygon fill="none" stroke="black" points="457,-198 241,-198 241,-162 457,-162 457,-198"/>
<text text-anchor="middle" x="349" y="-176.3" font-family="Times,serif" font-size="14.00">/home/dev/.ssh/authorized_keys</text>
</g>
<!-- passwd&#45;&gt;keys3 -->
<g id="edge5" class="edge"><title>passwd:e&#45;&gt;keys3:w</title>
<path fill="none" stroke="black" d="M205,-234C229.563,-234 217.481,-194.841 231.165,-183.216"/>
<polygon fill="black" stroke="black" points="232.583,-186.435 241,-180 230.407,-179.782 232.583,-186.435"/>
</g>
<!-- keylist -->
<g id="node10" class="node"><title>keylist</title>
<polygon fill="none" stroke="black" points="598,-252 500,-252 500,-216 598,-216 598,-252"/>
<text text-anchor="middle" x="549" y="-230.3" font-family="Times,serif" font-size="14.00">List of all keys</text>
</g>
<!-- keys1&#45;&gt;keylist -->
<g id="edge6" class="edge"><title>keys1:e&#45;&gt;keylist:w</title>
<path fill="none" stroke="black" d="M457,-288C483.367,-288 472.723,-247.391 489.259,-236.605"/>
<polygon fill="black" stroke="black" points="490.244,-239.964 499,-234 488.435,-233.202 490.244,-239.964"/>
</g>
<!-- keys2&#45;&gt;keylist -->
<g id="edge7" class="edge"><title>keys2:e&#45;&gt;keylist:w</title>
<path fill="none" stroke="black" d="M457,-234C471.729,-234 477.742,-234 488.793,-234"/>
<polygon fill="black" stroke="black" points="489,-237.5 499,-234 489,-230.5 489,-237.5"/>
</g>
<!-- keys3&#45;&gt;keylist -->
<g id="edge8" class="edge"><title>keys3:e&#45;&gt;keylist:w</title>
<path fill="none" stroke="black" d="M457,-180C483.367,-180 472.723,-220.609 489.259,-231.395"/>
<polygon fill="black" stroke="black" points="488.435,-234.798 499,-234 490.244,-228.036 488.435,-234.798"/>
</g>
<!-- authlog1 -->
<g id="node7" class="node"><title>authlog1</title>
<polygon fill="none" stroke="black" points="421,-144 277,-144 277,-108 421,-108 421,-144"/>
<text text-anchor="middle" x="349" y="-122.3" font-family="Times,serif" font-size="14.00">/var/log/auth.log</text>
</g>
<!-- logs&#45;&gt;authlog1 -->
<g id="edge9" class="edge"><title>logs:e&#45;&gt;authlog1:w</title>
<path fill="none" stroke="black" d="M197,-72C235.875,-72 234.153,-117.118 266.05,-124.872"/>
<polygon fill="black" stroke="black" points="265.669,-128.351 276,-126 266.458,-121.396 265.669,-128.351"/>
</g>
<!-- authlog2 -->
<g id="node8" class="node"><title>authlog2</title>
<polygon fill="none" stroke="black" points="421,-90 277,-90 277,-54 421,-54 421,-90"/>
<text text-anchor="middle" x="349" y="-68.3" font-family="Times,serif" font-size="14.00">/var/log/auth.log.1</text>
</g>
<!-- logs&#45;&gt;authlog2 -->
<g id="edge10" class="edge"><title>logs:e&#45;&gt;authlog2:w</title>
<path fill="none" stroke="black" d="M197,-72C228.408,-72 238.744,-72 265.708,-72"/>
<polygon fill="black" stroke="black" points="266,-75.5001 276,-72 266,-68.5001 266,-75.5001"/>
</g>
<!-- authlog3 -->
<g id="node9" class="node"><title>authlog3</title>
<polygon fill="none" stroke="black" points="421,-36 277,-36 277,-0 421,-0 421,-36"/>
<text text-anchor="middle" x="349" y="-14.3" font-family="Times,serif" font-size="14.00">/var/log/auth.log.2.gz</text>
</g>
<!-- logs&#45;&gt;authlog3 -->
<g id="edge11" class="edge"><title>logs:e&#45;&gt;authlog3:w</title>
<path fill="none" stroke="black" d="M197,-72C235.875,-72 234.153,-26.8824 266.05,-19.1279"/>
<polygon fill="black" stroke="black" points="266.458,-22.6042 276,-18 265.669,-15.6487 266.458,-22.6042"/>
</g>
<!-- mergelogs -->
<g id="node11" class="node"><title>mergelogs</title>
<polygon fill="none" stroke="black" points="605,-90 493,-90 493,-54 605,-54 605,-90"/>
<text text-anchor="middle" x="549" y="-68.3" font-family="Times,serif" font-size="14.00">Summary of logs</text>
</g>
<!-- authlog1&#45;&gt;mergelogs -->
<g id="edge12" class="edge"><title>authlog1:e&#45;&gt;mergelogs:w</title>
<path fill="none" stroke="black" d="M422,-126C457.929,-126 454.488,-81.6504 483.035,-73.3348"/>
<polygon fill="black" stroke="black" points="483.553,-76.7967 493,-72 482.624,-69.8587 483.553,-76.7967"/>
</g>
<!-- authlog2&#45;&gt;mergelogs -->
<g id="edge13" class="edge"><title>authlog2:e&#45;&gt;mergelogs:w</title>
<path fill="none" stroke="black" d="M422,-72C449.858,-72 459.27,-72 482.805,-72"/>
<polygon fill="black" stroke="black" points="483,-75.5001 493,-72 483,-68.5001 483,-75.5001"/>
</g>
<!-- authlog3&#45;&gt;mergelogs -->
<g id="edge14" class="edge"><title>authlog3:e&#45;&gt;mergelogs:w</title>
<path fill="none" stroke="black" d="M422,-18C457.929,-18 454.488,-62.3496 483.035,-70.6652"/>
<polygon fill="black" stroke="black" points="482.624,-74.1413 493,-72 483.553,-67.2033 482.624,-74.1413"/>
</g>
<!-- display -->
<g id="node12" class="node"><title>display</title>
<polygon fill="none" stroke="black" points="730,-171 641,-171 641,-135 730,-135 730,-171"/>
<text text-anchor="middle" x="685.5" y="-149.3" font-family="Times,serif" font-size="14.00">Display table</text>
</g>
<!-- keylist&#45;&gt;display -->
<g id="edge15" class="edge"><title>keylist:e&#45;&gt;display:w</title>
<path fill="none" stroke="black" d="M599,-234C635.433,-234 607.57,-168.618 630.942,-155.337"/>
<polygon fill="black" stroke="black" points="632.052,-158.672 641,-153 630.467,-151.854 632.052,-158.672"/>
</g>
<!-- mergelogs&#45;&gt;display -->
<g id="edge16" class="edge"><title>mergelogs:e&#45;&gt;display:w</title>
<path fill="none" stroke="black" d="M605,-72C640.24,-72 609.717,-136.815 631.085,-150.487"/>
<polygon fill="black" stroke="black" points="630.447,-153.936 641,-153 632.166,-147.15 630.447,-153.936"/>
</g>
</g>
</svg>
